Coordinates
version=1
nRows=8
nColumns=63
inDegrees=yes

Units are S.I. units (second, meters, Newtons, ...)
If the header above contains a line with 'inDegrees', this indicates whether rotational values are in degrees (yes) or radians (no).

endheader
time	pelvis_tilt	pelvis_list	pelvis_rotation	pelvis_tx	pelvis_ty	pelvis_tz	hip_flexion_r	hip_adduction_r	hip_rotation_r	knee_angle_r	knee_angle_r_beta	ankle_angle_r	subtalar_angle_r	mtp_angle_r	hip_flexion_l	hip_adduction_l	hip_rotation_l	knee_angle_l	knee_angle_l_beta	ankle_angle_l	subtalar_angle_l	mtp_angle_l	L5_S1_Flex_Ext	L5_S1_Lat_Bending	L5_S1_axial_rotation	L4_L5_Flex_Ext	L4_L5_Lat_Bending	L4_L5_axial_rotation	L3_L4_Flex_Ext	L3_L4_Lat_Bending	L3_L4_axial_rotation	L2_L3_Flex_Ext	L2_L3_Lat_Bending	L2_L3_axial_rotation	L1_L2_Flex_Ext	L1_L2_Lat_Bending	L1_L2_axial_rotation	L1_T12_Flex_Ext	L1_T12_Lat_Bending	L1_T12_axial_rotation	Abs_r3	Abs_r2	Abs_r1	Abs_t1	Abs_t2	neck_flexion	neck_bending	neck_rotation	arm_flex_r	arm_add_r	arm_rot_r	elbow_flex_r	pro_sup_r	wrist_flex_r	wrist_dev_r	arm_flex_l	arm_add_l	arm_rot_l	elbow_flex_l	pro_sup_l	wrist_flex_l	wrist_dev_l
      1.78125000	    -13.98712087	      6.12613676	     97.57811963	      0.27807478	      0.88758799	      0.61643738	    -14.10629710	    -10.42994988	     13.47416458	      0.49530177	      0.00864465	     26.65804379	    -17.78589105	      0.00000000	    -10.69403262	      8.60535136	     -5.82657444	      6.26158433	      0.10928526	     25.21679556	     15.95128835	      0.00000000	     -0.82677795	     -3.89540390	     -3.32315821	     -1.53540933	     -5.18088719	     -3.53085560	     -1.35831349	     -9.47128505	     -3.53085560	     -0.94492452	     -9.47128505	     -2.90776343	     -0.76774600	     -7.94350764	     -2.70006604	     -0.47242092	     -6.03398065	     -2.49236866	     -5.90559220	    -44.06558805	    -18.48240901	      0.00000000	      0.00000000	     26.42498372	     35.31405723	    -44.59383472	    -86.79101365	   -138.14262590	   -198.12570445	    137.87660003	      1.59993371	    -58.97121876	     29.24930013	    178.81326471	     40.06271022	    169.08815810	      0.04842200	      0.38979479	    -69.92278608	    -24.35560708
      1.81250000	    -13.42656369	      5.77960013	     97.67869841	      0.27640413	      0.88799907	      0.61685104	    -13.62908392	     -9.94075871	     13.27950480	      0.55471556	      0.00968161	     26.38034397	    -17.69583504	      0.00000000	    -10.21141724	      8.16939070	     -5.03060401	      6.32158203	      0.11033242	     25.09328672	     15.02952754	      0.00000000	     -0.82961666	     -3.81539268	     -3.76957530	     -1.54068109	     -5.07447227	     -4.00517376	     -1.36297721	     -9.27674577	     -4.00517376	     -0.94816888	     -9.27674577	     -3.29837839	     -0.77038203	     -7.78034876	     -3.06277994	     -0.47404296	     -5.91004326	     -2.82718148	     -5.92586882	    -43.16048509	    -20.96524697	      0.00000000	      0.00000000	     26.44062659	     35.14322120	    -44.51693551	    -86.42348868	   -140.40891594	   -197.33455179	    136.66666881	      1.00296045	    -67.93802085	     33.06196931	    181.53891789	     40.21793323	    170.91007601	      0.04962218	      0.39789063	    -69.92043179	    -24.32597894
      1.84375000	    -12.69666537	      5.25335541	     97.40750415	      0.27498867	      0.88832882	      0.61722199	    -12.81255966	     -9.38581678	     13.46480424	      0.64169319	      0.01119966	     26.02677933	    -17.66076134	      0.00000000	     -9.46032959	      7.61915025	     -5.31509152	      6.43812033	      0.11236640	     25.08411909	     15.02609089	      0.00000000	     -0.79719358	     -3.71965161	     -4.02297945	     -1.48046819	     -4.94713664	     -4.27441567	     -1.30970933	     -9.04396093	     -4.27441567	     -0.91111254	     -9.04396093	     -3.52010702	     -0.74027395	     -7.58511357	     -3.26867081	     -0.45551641	     -5.76174035	     -3.01723459	     -5.69427399	    -42.07744296	    -22.37460483	      0.00000000	      0.00000000	     26.35858517	     34.99056624	    -44.44568873	    -87.16135431	   -140.82068711	   -196.58551928	    135.89365904	      0.72710313	    -69.03637625	     33.85783086	    183.94467408	     40.33029826	    173.25863086	      0.05066190	      0.41022801	    -69.91839877	    -24.30474032
      1.87500000	    -12.33701019	      4.83512480	     97.38728254	      0.27415412	      0.88870344	      0.61772697	    -12.22176476	     -9.10171068	     13.36919228	      0.73752050	      0.01287216	     25.75930708	    -17.62397221	      0.00000000	     -8.89902333	      7.35242168	     -5.31806333	      6.51331949	      0.11367887	     24.98310764	     15.13452329	      0.00000000	     -0.78038091	     -3.67752970	     -4.10007488	     -1.44924539	     -4.89111451	     -4.35632956	     -1.28208780	     -8.94154572	     -4.35632956	     -0.89189735	     -8.94154572	     -3.58756552	     -0.72466172	     -7.49921857	     -3.33131084	     -0.44590965	     -5.69649351	     -3.07505616	     -5.57418282	    -41.60095151	    -22.80338643	      0.00000000	      0.00000000	     26.32188367	     34.84816972	    -44.37722208	    -88.27264779	   -139.66767921	   -196.04384461	    135.71867223	      0.57812828	    -69.32796384	     34.17957325	    185.17159036	     40.16018505	    176.01915776	      0.05086516	      0.42153574	    -69.91776745	    -24.32327070
      1.90625000	    -12.18949761	      4.76331329	     97.50170402	      0.27384154	      0.88937088	      0.61827161	    -12.05675003	     -8.92950575	     13.17591494	      0.82586163	      0.01441400	     25.59598985	    -17.63423950	      0.00000000	     -8.73113877	      7.20141338	     -5.14443859	      6.57343913	      0.11472816	     24.98835437	     15.26061196	      0.00000000	     -0.80003161	     -3.66904680	     -4.03340886	     -1.48573871	     -4.87983224	     -4.28549691	     -1.31437194	     -8.92092038	     -4.28549691	     -0.91435613	     -8.92092038	     -3.52923275	     -0.74290935	     -7.48192023	     -3.27714470	     -0.45713806	     -5.68335349	     -3.02505664	     -5.71454580	    -41.50499116	    -22.43261005	      0.00000000	      0.00000000	     26.44174376	     34.79485733	    -44.32365880	    -90.00675959	   -137.68517752	   -195.55003736	    135.70756311	      0.45718577	    -69.46724491	     34.39252902	    185.42403617	     39.85615078	    178.57412979	      0.05052687	      0.44118785	    -69.91823448	    -24.39797954
      1.93750000	    -12.03664702	      4.58876467	     97.42286495	      0.27383727	      0.88971678	      0.61909056	    -11.68753911	     -8.80309497	     13.17699978	      0.95496848	      0.01666734	     25.66276052	    -17.48121602	      0.00000000	     -8.42141275	      7.09049580	     -5.19459374	      6.61939027	      0.11553015	     25.01405719	     15.23854038	      0.00000000	     -0.77801752	     -3.65148561	     -4.10165156	     -1.44485633	     -4.85647586	     -4.35800478	     -1.27820498	     -8.87822211	     -4.35800478	     -0.88919622	     -8.87822211	     -3.58894512	     -0.72246707	     -7.44610946	     -3.33259189	     -0.44455921	     -5.65615121	     -3.07623867	     -5.55730132	    -41.30633552	    -22.81215549	      0.00000000	      0.00000000	     26.74156397	     34.84304304	    -44.16711240	    -91.33963928	   -136.71349470	   -194.40188583	    135.77247118	      0.37987978	    -69.54581725	     34.52404761	    186.16131830	     39.35286628	    183.47684277	      0.04956333	      0.43201185	    -69.91877454	    -24.40312700
      1.96875000	    -12.19310574	      4.54214504	     97.63147996	      0.27435294	      0.88991318	      0.61911547	    -11.63473671	     -8.86830580	     12.99856208	      1.04916774	      0.01831143	     25.83809756	    -17.61234669	      0.00000000	     -8.37052379	      7.17025754	     -5.09070199	      6.68747853	      0.11671852	     24.88601472	     15.41065075	      0.00000000	     -0.78655606	     -3.68440293	     -4.07457632	     -1.46071326	     -4.90025590	     -4.32923734	     -1.29223295	     -8.95825729	     -4.32923734	     -0.89895492	     -8.95825729	     -3.56525428	     -0.73039596	     -7.51323446	     -3.31059326	     -0.44943813	     -5.70714014	     -3.05593224	     -5.61829128	    -41.67870284	    -22.66157113	      0.00000000	      0.00000000	     27.23773286	     35.02896007	    -44.13888986	    -92.87620201	   -134.19344061	   -194.73801753	    137.46966856	      0.37841184	    -69.53310812	     34.54865059	    186.71979420	     38.95145601	    186.12342556	      0.04833617	      0.45546213	    -69.92109550	    -24.48421823
      2.00000000	    -13.20731546	      4.30891349	     98.15167471	      0.27698862	      0.88950123	      0.61889366	    -11.64322195	     -9.68583157	     12.68207359	      1.03898665	      0.01813374	     26.36455586	    -17.64228809	      0.00000000	     -8.27358044	      7.96146253	     -5.03553755	      6.79506706	      0.11859629	     24.39333679	     15.83945007	      0.00000000	     -0.75627295	     -3.84525810	     -4.07575267	     -1.40447449	     -5.11419327	     -4.33048721	     -1.24248082	     -9.34936054	     -4.33048721	     -0.86434435	     -9.34936054	     -3.56628359	     -0.70227506	     -7.84125031	     -3.31154905	     -0.43213436	     -5.95630479	     -3.05681450	     -5.40198203	    -43.49832866	    -22.66811363	      0.00000000	      0.00000000	     27.66863119	     35.43179062	    -44.08491380	    -94.79447706	   -132.04536587	   -198.28262058	    140.85087525	      0.49384747	    -69.44202688	     34.44633564	    187.04939216	     38.35327296	    189.30455264	      0.04517586	      0.43927127	    -69.92621241	    -24.53017391
